# xmcd CD database file
#
# Track frame offsets:
#	150
#	16162
#	31481
#	49432
#	60231
#	75487
#	86265
#	101338
#	121764
#	145681
#	160268
#	176381
#	190055
#	203600
#
# Disc length: 2857 seconds
#
# Revision: 0
# Processed by: cddbd v1.5.1PL0 Copyright (c) Steve Scherf et al.
# Submitted via: CDex 1.40PlusFr
#
DISCID=9e0b270e
DTITLE=Mudcat - I'll Be Young Once Too
DYEAR=2005
DGENRE=Blues
TTITLE0=Heaven Is Mine
TTITLE1=I'll Be Young Once Too
TTITLE2=Death Letter Blues
TTITLE3=Liquor And Sin
TTITLE4=Beauty And Pride
TTITLE5=The Wind
TTITLE6=Walk On
TTITLE7=Better Be Careful
TTITLE8=Jackson
TTITLE9=Furry
TTITLE10=Whiskey
TTITLE11=Georgia Rag
TTITLE12=Laughing To Keep From Crying
TTITLE13=Mario's Song
EXTD=YEAR: 2005 ID3G: 0
EXTT0=
EXTT1=
EXTT2=
EXTT3=
EXTT4=
EXTT5=
EXTT6=
EXTT7=
EXTT8=
EXTT9=
EXTT10=
EXTT11=
EXTT12=
EXTT13=
PLAYORDER=
